<svg width="1440" height="960" viewBox="0 0 1440 960" fill="none" xmlns="http://www.w3.org/2000/svg" role="img" aria-labelledby="title desc">
  <title id="title">OpsPilot 대시보드 미리보기</title>
  <desc id="desc">권한 인식 RAG 답변, 출처, 도구 호출, 문서 접근, 평가 지표를 보여주는 제품 대시보드 미리보기입니다.</desc>
  <rect width="1440" height="960" fill="#F5F7F8"/>
  <rect x="48" y="40" width="1344" height="880" rx="18" fill="#FFFFFF" stroke="#D9E1E7"/>

  <rect x="48" y="40" width="1344" height="72" rx="18" fill="#111827"/>
  <path d="M48 94H1392V112H48V94Z" fill="#111827"/>
  <rect x="80" y="62" width="32" height="32" rx="8" fill="#19A974"/>
  <path d="M88 78C88 71.373 93.373 66 100 66H104V74H100C97.791 74 96 75.791 96 78C96 80.209 97.791 82 100 82H104V90H100C93.373 90 88 84.627 88 78Z" fill="#FFFFFF"/>
  <text x="128" y="84" fill="#FFFFFF" font-family="Inter, Arial, sans-serif" font-size="22" font-weight="700">OpsPilot</text>
  <text x="238" y="84" fill="#9CA3AF" font-family="Inter, Arial, sans-serif" font-size="14">운영 지식 Agent</text>
  <rect x="1052" y="61" width="118" height="34" rx="8" fill="#1F2937" stroke="#374151"/>
  <circle cx="1070" cy="78" r="5" fill="#19A974"/>
  <text x="1084" y="83" fill="#D1D5DB" font-family="Inter, Arial, sans-serif" font-size="13" font-weight="600">pgvector</text>
  <rect x="1184" y="61" width="176" height="34" rx="8" fill="#1F2937" stroke="#374151"/>
  <text x="1200" y="83" fill="#D1D5DB" font-family="Inter, Arial, sans-serif" font-size="13" font-weight="600">payments 팀 사용자</text>

  <rect x="80" y="144" width="248" height="744" rx="12" fill="#F8FAFC" stroke="#D9E1E7"/>
  <text x="104" y="180" fill="#111827" font-family="Inter, Arial, sans-serif" font-size="14" font-weight="700">작업 영역</text>
  <rect x="104" y="208" width="200" height="44" rx="8" fill="#E8F7F1"/>
  <text x="132" y="235" fill="#047857" font-family="Inter, Arial, sans-serif" font-size="14" font-weight="700">Agent 질문</text>
  <text x="132" y="292" fill="#4B5563" font-family="Inter, Arial, sans-serif" font-size="14" font-weight="600">문서</text>
  <text x="132" y="340" fill="#4B5563" font-family="Inter, Arial, sans-serif" font-size="14" font-weight="600">승인</text>
  <text x="132" y="388" fill="#4B5563" font-family="Inter, Arial, sans-serif" font-size="14" font-weight="600">평가</text>
  <text x="132" y="436" fill="#4B5563" font-family="Inter, Arial, sans-serif" font-size="14" font-weight="600">도구 로그</text>
  <rect x="104" y="730" width="200" height="112" rx="10" fill="#FFFFFF" stroke="#D9E1E7"/>
  <text x="124" y="760" fill="#111827" font-family="Inter, Arial, sans-serif" font-size="13" font-weight="700">권한 경계</text>
  <text x="124" y="790" fill="#6B7280" font-family="Inter, Arial, sans-serif" font-size="12">검색 필터가</text>
  <text x="124" y="810" fill="#6B7280" font-family="Inter, Arial, sans-serif" font-size="12">프롬프트 전에 실행</text>

  <rect x="360" y="144" width="664" height="744" rx="12" fill="#FFFFFF" stroke="#D9E1E7"/>
  <text x="392" y="186" fill="#111827" font-family="Inter, Arial, sans-serif" font-size="20" font-weight="800">운영 Wiki에 질문</text>
  <text x="392" y="212" fill="#6B7280" font-family="Inter, Arial, sans-serif" font-size="13">권한 인식 출처와 도구 호출 trace가 포함된 근거 답변</text>

  <rect x="392" y="244" width="600" height="88" rx="10" fill="#F8FAFC" stroke="#D9E1E7"/>
  <text x="416" y="276" fill="#374151" font-family="Inter, Arial, sans-serif" font-size="13" font-weight="700">질문</text>
  <text x="416" y="306" fill="#111827" font-family="Inter, Arial, sans-serif" font-size="18" font-weight="700">E102 에러가 발생하면 어떻게 대응해야 해?</text>

  <rect x="392" y="356" width="600" height="194" rx="10" fill="#F9FAFB" stroke="#D9E1E7"/>
  <rect x="416" y="384" width="86" height="28" rx="14" fill="#DCFCE7"/>
  <text x="432" y="403" fill="#047857" font-family="Inter, Arial, sans-serif" font-size="12" font-weight="800">답변</text>
  <rect x="512" y="384" width="128" height="28" rx="14" fill="#EFF6FF"/>
  <text x="528" y="403" fill="#1D4ED8" font-family="Inter, Arial, sans-serif" font-size="12" font-weight="800">신뢰도 0.86</text>
  <text x="416" y="442" fill="#111827" font-family="Inter, Arial, sans-serif" font-size="16" font-weight="700">E102는 결제 승인 타임아웃입니다.</text>
  <text x="416" y="474" fill="#374151" font-family="Inter, Arial, sans-serif" font-size="14">게이트웨이 상태 페이지와 payment.approval.timeout 지표를 먼저 확인합니다.</text>
  <text x="416" y="502" fill="#374151" font-family="Inter, Arial, sans-serif" font-size="14">5분 동안 분당 30건 이상이면 payment 온콜 담당자에게 에스컬레이션합니다.</text>

  <text x="392" y="594" fill="#111827" font-family="Inter, Arial, sans-serif" font-size="15" font-weight="800">출처</text>
  <rect x="392" y="616" width="600" height="92" rx="10" fill="#FFFFFF" stroke="#D9E1E7"/>
  <rect x="416" y="638" width="42" height="42" rx="8" fill="#E0F2FE"/>
  <text x="431" y="664" fill="#0369A1" font-family="Inter, Arial, sans-serif" font-size="14" font-weight="800">#1</text>
  <text x="478" y="652" fill="#111827" font-family="Inter, Arial, sans-serif" font-size="14" font-weight="800">결제 API 에러 코드</text>
  <text x="478" y="678" fill="#6B7280" font-family="Inter, Arial, sans-serif" font-size="13">public/payment-error-codes.md · 점수 0.91</text>

  <text x="392" y="752" fill="#111827" font-family="Inter, Arial, sans-serif" font-size="15" font-weight="800">도구 호출</text>
  <rect x="392" y="774" width="284" height="60" rx="10" fill="#F8FAFC" stroke="#D9E1E7"/>
  <text x="416" y="810" fill="#111827" font-family="Inter, Arial, sans-serif" font-size="13" font-weight="800">search_documents</text>
  <rect x="554" y="792" width="82" height="24" rx="12" fill="#DCFCE7"/>
  <text x="572" y="808" fill="#047857" font-family="Inter, Arial, sans-serif" font-size="11" font-weight="800">허용</text>
  <rect x="708" y="774" width="284" height="60" rx="10" fill="#F8FAFC" stroke="#D9E1E7"/>
  <text x="732" y="810" fill="#111827" font-family="Inter, Arial, sans-serif" font-size="13" font-weight="800">승인 필요 여부</text>
  <rect x="884" y="792" width="68" height="24" rx="12" fill="#F3F4F6"/>
  <text x="905" y="808" fill="#4B5563" font-family="Inter, Arial, sans-serif" font-size="11" font-weight="800">아니오</text>

  <rect x="1056" y="144" width="304" height="744" rx="12" fill="#FFFFFF" stroke="#D9E1E7"/>
  <text x="1088" y="186" fill="#111827" font-family="Inter, Arial, sans-serif" font-size="18" font-weight="800">시스템 신호</text>
  <text x="1088" y="212" fill="#6B7280" font-family="Inter, Arial, sans-serif" font-size="13">색인, 접근, 품질 지표</text>

  <rect x="1088" y="244" width="240" height="100" rx="10" fill="#F8FAFC" stroke="#D9E1E7"/>
  <text x="1112" y="274" fill="#6B7280" font-family="Inter, Arial, sans-serif" font-size="12" font-weight="700">색인 청크</text>
  <text x="1112" y="318" fill="#111827" font-family="Inter, Arial, sans-serif" font-size="32" font-weight="900">23</text>
  <text x="1190" y="318" fill="#047857" font-family="Inter, Arial, sans-serif" font-size="13" font-weight="800">최신</text>

  <rect x="1088" y="368" width="240" height="120" rx="10" fill="#F8FAFC" stroke="#D9E1E7"/>
  <text x="1112" y="398" fill="#6B7280" font-family="Inter, Arial, sans-serif" font-size="12" font-weight="700">접근 범위</text>
  <rect x="1112" y="420" width="72" height="26" rx="13" fill="#DCFCE7"/>
  <text x="1128" y="438" fill="#047857" font-family="Inter, Arial, sans-serif" font-size="11" font-weight="800">public</text>
  <rect x="1194" y="420" width="84" height="26" rx="13" fill="#E0F2FE"/>
  <text x="1214" y="438" fill="#0369A1" font-family="Inter, Arial, sans-serif" font-size="11" font-weight="800">payments</text>
  <rect x="1112" y="454" width="96" height="26" rx="13" fill="#FEE2E2"/>
  <text x="1128" y="472" fill="#B91C1C" font-family="Inter, Arial, sans-serif" font-size="11" font-weight="800">제한 문서 차단</text>

  <rect x="1088" y="512" width="240" height="164" rx="10" fill="#F8FAFC" stroke="#D9E1E7"/>
  <text x="1112" y="542" fill="#6B7280" font-family="Inter, Arial, sans-serif" font-size="12" font-weight="700">평가</text>
  <text x="1112" y="586" fill="#111827" font-family="Inter, Arial, sans-serif" font-size="28" font-weight="900">0.92</text>
  <text x="1190" y="586" fill="#6B7280" font-family="Inter, Arial, sans-serif" font-size="13">출처 적중률</text>
  <rect x="1112" y="616" width="188" height="10" rx="5" fill="#E5E7EB"/>
  <rect x="1112" y="616" width="173" height="10" rx="5" fill="#19A974"/>
  <text x="1112" y="650" fill="#6B7280" font-family="Inter, Arial, sans-serif" font-size="12">평가셋의 기대 출처와 일치</text>

  <rect x="1088" y="700" width="240" height="134" rx="10" fill="#FFF7ED" stroke="#FED7AA"/>
  <text x="1112" y="730" fill="#9A3412" font-family="Inter, Arial, sans-serif" font-size="12" font-weight="800">사람 검토</text>
  <text x="1112" y="766" fill="#111827" font-family="Inter, Arial, sans-serif" font-size="15" font-weight="800">민감 작업은 차단</text>
  <text x="1112" y="794" fill="#7C2D12" font-family="Inter, Arial, sans-serif" font-size="12">강제 환불, 운영 DB 쓰기,</text>
  <text x="1112" y="814" fill="#7C2D12" font-family="Inter, Arial, sans-serif" font-size="12">권한 부여는 승인 필요</text>
</svg>
